<svg xmlns="http://www.w3.org/2000/svg" xmlns:xlink="http://www.w3.org/1999/xlink" version="1.2" width="123.14mm" height="27.12mm" viewBox="-3.3802 0.8260 70.0759 15.4319">
<style type="text/css">
<![CDATA[
tspan { white-space: pre; }
]]>
</style>
<g class="st">
<g transform="translate(0.0000, 10.9212)">
<line stroke-linejoin="round" stroke-linecap="round" stroke-width="0.1000" stroke="currentColor" x1="0.0500" y1="0" x2="63.3605" y2="0"/>
</g>
<g transform="translate(0.0000, 9.9212)">
<line stroke-linejoin="round" stroke-linecap="round" stroke-width="0.1000" stroke="currentColor" x1="0.0500" y1="0" x2="63.3605" y2="0"/>
</g>
<g transform="translate(0.0000, 8.9212)">
<line stroke-linejoin="round" stroke-linecap="round" stroke-width="0.1000" stroke="currentColor" x1="0.0500" y1="0" x2="63.3605" y2="0"/>
</g>
<g transform="translate(0.0000, 7.9212)">
<line stroke-linejoin="round" stroke-linecap="round" stroke-width="0.1000" stroke="currentColor" x1="0.0500" y1="0" x2="63.3605" y2="0"/>
</g>
<g transform="translate(0.0000, 6.9212)">
<line stroke-linejoin="round" stroke-linecap="round" stroke-width="0.1000" stroke="currentColor" x1="0.0500" y1="0" x2="63.3605" y2="0"/>
</g>
</g>
<g transform="translate(0.0000, 5.9212)">
<rect x="52.6624" y="-0.1000" width="1.9563" height="0.2000" ry="0.1000" fill="currentColor"/>
</g>
<g transform="translate(0.0000, 5.9212)">
<rect x="49.4562" y="-0.1000" width="1.9563" height="0.2000" ry="0.1000" fill="currentColor"/>
</g>
<g transform="translate(0.0000, 5.9212)">
<rect x="44.4478" y="-0.1000" width="1.9563" height="0.2000" ry="0.1000" fill="currentColor"/>
</g>
<g transform="translate(0.0000, 5.9212)">
<rect x="11.5821" y="-0.1000" width="1.9563" height="0.2000" ry="0.1000" fill="currentColor"/>
</g>
<g transform="translate(0.0000, 4.9212)">
<rect x="8.5270" y="-0.1000" width="1.8053" height="0.2000" ry="0.1000" fill="currentColor"/>
</g>
<g transform="translate(0.0000, 5.9212)">
<rect x="8.3759" y="-0.1000" width="1.9563" height="0.2000" ry="0.1000" fill="currentColor"/>
</g>
<g transform="translate(33.1362, 8.9212)">
<rect x="0.0000" y="-2.0000" width="0.1900" height="4.0000" ry="0.0000" fill="currentColor"/>
</g>
<g transform="translate(63.2205, 8.9212)">
<rect x="0.0000" y="-2.0000" width="0.1900" height="4.0000" ry="0.0000" fill="currentColor"/>
</g>
<g class="ev" data-at="1.3333333333333333">
<g transform="translate(44.7738, 5.9212)">
<path transform="scale(0.0040, -0.0040)" d="M218 136c66 0 108 -36 108 -89c0 -89 -113 -183 -218 -183c-66 0 -108 36 -108 89c0 89 113 183 218 183z" fill="currentColor"/>
</g>
</g>
<g transform="translate(44.8388, 8.9212)">
<rect x="-0.0650" y="-2.8139" width="0.1300" height="3.7954" ry="0.0400" fill="currentColor"/>
</g>
<g class="ev" data-at="1.4166666666666667">
<g transform="translate(47.0281, 6.9212)">
<path transform="scale(0.0040, -0.0040)" d="M218 136c66 0 108 -36 108 -89c0 -89 -113 -183 -218 -183c-66 0 -108 36 -108 89c0 89 113 183 218 183z" fill="currentColor"/>
</g>
</g>
<g transform="translate(47.0931, 8.9212)">
<rect x="-0.0650" y="-1.8139" width="0.1300" height="2.6287" ry="0.0400" fill="currentColor"/>
</g>
<g class="ev" data-at="1.5">
<g transform="translate(49.7823, 5.4212)">
<path transform="scale(0.0040, -0.0040)" d="M218 136c66 0 108 -36 108 -89c0 -89 -113 -183 -218 -183c-66 0 -108 36 -108 89c0 89 113 183 218 183z" fill="currentColor"/>
</g>
</g>
<g transform="translate(49.8473, 8.9212)">
<rect x="-0.0650" y="-3.3139" width="0.1300" height="3.3176" ry="0.0400" fill="currentColor"/>
</g>
<g class="ev" data-at="1.625">
<g transform="translate(52.9884, 5.9212)">
<path transform="scale(0.0040, -0.0040)" d="M218 136c66 0 108 -36 108 -89c0 -89 -113 -183 -218 -183c-66 0 -108 36 -108 89c0 89 113 183 218 183z" fill="currentColor"/>
</g>
</g>
<g transform="translate(53.0534, 8.9212)">
<rect x="-0.0650" y="-2.8139" width="0.1300" height="3.0002" ry="0.0400" fill="currentColor"/>
</g>
<g transform="translate(36.4354, 8.9212)">
<rect x="-0.0650" y="-2.2012" width="0.1300" height="3.0151" ry="0.0400" fill="currentColor"/>
</g>
<g transform="translate(57.9504, 13.7068)">
<text font-family="serif" font-style="italic" font-size="1.7459" text-anchor="start" fill="currentColor">
<tspan>3</tspan>
</text>
</g>
<g transform="translate(34.0462, 9.9212)">
<path transform="scale(0.0040, -0.0040)" d="M27 41l-1 -66v-11c0 -22 1 -44 4 -66c45 38 93 80 93 139c0 33 -14 67 -43 67c-31 0 -52 -30 -53 -63zM-15 -138l-12 595c8 5 18 8 27 8s19 -3 27 -8l-7 -345c25 21 58 34 91 34c52 0 89 -48 89 -102c0 -80 -86 -117 -147 -169c-15 -13 -24 -38 -45 -38
c-13 0 -23 11 -23 25z" fill="currentColor"/>
</g>
<g class="ev" data-at="1.125">
<g transform="translate(38.6524, 8.9212)">
<path transform="scale(0.0040, -0.0040)" d="M218 136c66 0 108 -36 108 -89c0 -89 -113 -183 -218 -183c-66 0 -108 36 -108 89c0 89 113 183 218 183z" fill="currentColor"/>
</g>
</g>
<g transform="translate(39.8916, 8.9212)">
<rect x="-0.0650" y="-2.7988" width="0.1300" height="2.6127" ry="0.0400" fill="currentColor"/>
</g>
<g class="ev" data-at="1.25">
<g transform="translate(42.0196, 7.4212)">
<path transform="scale(0.0040, -0.0040)" d="M218 136c66 0 108 -36 108 -89c0 -89 -113 -183 -218 -183c-66 0 -108 36 -108 89c0 89 113 183 218 183z" fill="currentColor"/>
</g>
</g>
<g transform="translate(42.0846, 8.9212)">
<rect x="-0.0650" y="-1.3139" width="0.1300" height="2.4991" ry="0.0400" fill="currentColor"/>
</g>
<g transform="translate(8.7020, 8.9212)">
<path stroke-width="0.0800" stroke-linejoin="round" stroke-linecap="round" stroke="currentColor" fill="currentColor" d="M0.7265 -5.0450C2.5963 -6.1307 7.9670 -5.1977 9.3611 -3.5450L9.3611 -3.5450C7.9465 -5.0795 2.5758 -6.0125 0.7265 -5.0450z"/>
</g>
<g transform="translate(11.9081, 9.7312)">
<polygon stroke-linejoin="round" stroke-linecap="round" stroke-width="0.0800" fill="currentColor" stroke="currentColor" points="5.5184 -0.2000 5.5184 0.2000 0.0400 0.2000 0.0400 -0.2000"/>
</g>
<g transform="translate(14.1240, 12.0568)">
<text font-family="serif" font-style="italic" font-size="1.7459" text-anchor="start" fill="currentColor">
<tspan>3</tspan>
</text>
</g>
<g transform="translate(19.5908, 10.7312)">
<polygon stroke-linejoin="round" stroke-linecap="round" stroke-width="0.0800" fill="currentColor" stroke="currentColor" points="3.2962 -0.2000 3.2962 0.2000 0.0400 0.2000 0.0400 -0.2000"/>
</g>
<g transform="translate(22.7969, 8.9212)">
<path stroke-width="0.0800" stroke-linejoin="round" stroke-linecap="round" stroke="currentColor" fill="currentColor" d="M0.7248 -2.5450C2.5050 -3.6062 7.3582 -2.7836 8.6893 -1.1950L8.6893 -1.1950C7.3381 -2.6653 2.4850 -3.4879 0.7248 -2.5450z"/>
</g>
<g transform="translate(26.0031, 11.7312)">
<polygon stroke-linejoin="round" stroke-linecap="round" stroke-width="0.0800" fill="currentColor" stroke="currentColor" points="4.8484 -0.2000 4.8484 0.2000 0.0400 0.2000 0.0400 -0.2000"/>
</g>
<g transform="translate(27.8839, 13.7068)">
<text font-family="serif" font-style="italic" font-size="1.7459" text-anchor="start" fill="currentColor">
<tspan>3</tspan>
</text>
</g>
<g transform="translate(36.3704, 6.7312)">
<polygon stroke-linejoin="round" stroke-linecap="round" stroke-width="0.0800" fill="currentColor" stroke="currentColor" points="3.5462 -0.8200 3.5462 -0.4200 0.0400 0.2000 0.0400 -0.2000"/>
</g>
<g transform="translate(35.1962, 8.9212)">
<path stroke-width="0.0800" stroke-linejoin="round" stroke-linecap="round" stroke="currentColor" fill="currentColor" d="M1.2352 -2.9412C3.1234 -4.4773 10.5637 -4.5459 12.4800 -3.0450L12.4800 -3.0450C10.5648 -4.4259 3.1245 -4.3573 1.2352 -2.9412z"/>
</g>
<g transform="translate(42.0196, 10.1112)">
<polygon stroke-linejoin="round" stroke-linecap="round" stroke-width="0.0800" fill="currentColor" stroke="currentColor" points="5.0984 -0.5800 5.0984 -0.1800 0.0400 0.2000 0.0400 -0.2000"/>
</g>
<g transform="translate(44.0255, 11.9014)">
<text font-family="serif" font-style="italic" font-size="1.7459" text-anchor="start" fill="currentColor">
<tspan>3</tspan>
</text>
</g>
<g transform="translate(49.7823, 8.9212)">
<polygon stroke-linejoin="round" stroke-linecap="round" stroke-width="0.0800" fill="currentColor" stroke="currentColor" points="3.2962 -0.0100 3.2962 0.3900 0.0400 0.2000 0.0400 -0.2000"/>
</g>
<g transform="translate(49.7823, 8.9212)">
<path stroke-width="0.0800" stroke-linejoin="round" stroke-linecap="round" stroke="currentColor" fill="currentColor" d="M0.7191 -4.5450C1.6594 -5.1901 3.2261 -4.9458 3.9253 -4.0450L3.9253 -4.0450C3.2076 -4.8272 1.6409 -5.0715 0.7191 -4.5450z"/>
</g>
<g transform="translate(55.9446, 11.7312)">
<polygon stroke-linejoin="round" stroke-linecap="round" stroke-width="0.0800" fill="currentColor" stroke="currentColor" points="5.0984 -0.2000 5.0984 0.2000 0.0400 0.2000 0.0400 -0.2000"/>
</g>
<g transform="translate(55.9446, 8.9212)">
<path stroke-width="0.0800" stroke-linejoin="round" stroke-linecap="round" stroke="currentColor" fill="currentColor" d="M0.6953 -3.0450C1.9490 -3.9776 4.6591 -3.7070 5.7037 -2.5450L5.7037 -2.5450C4.6472 -3.5876 1.9371 -3.8582 0.6953 -3.0450z"/>
</g>
<g class="ev" data-at="1.75">
<g transform="translate(55.9446, 6.9212)">
<path transform="scale(0.0040, -0.0040)" d="M218 136c66 0 108 -36 108 -89c0 -89 -113 -183 -218 -183c-66 0 -108 36 -108 89c0 89 113 183 218 183z" fill="currentColor"/>
</g>
</g>
<g transform="translate(56.0096, 8.9212)">
<rect x="-0.0650" y="-1.8139" width="0.1300" height="4.6239" ry="0.0400" fill="currentColor"/>
</g>
<g class="ev" data-at="1.8333333333333333">
<g transform="translate(58.1988, 8.9212)">
<path transform="scale(0.0040, -0.0040)" d="M218 136c66 0 108 -36 108 -89c0 -89 -113 -183 -218 -183c-66 0 -108 36 -108 89c0 89 113 183 218 183z" fill="currentColor"/>
</g>
</g>
<g transform="translate(58.2638, 8.9212)">
<rect x="-0.0650" y="0.1861" width="0.1300" height="2.6239" ry="0.0400" fill="currentColor"/>
</g>
<g class="ev" data-at="1.9166666666666667">
<g transform="translate(60.9530, 7.4212)">
<path transform="scale(0.0040, -0.0040)" d="M218 136c66 0 108 -36 108 -89c0 -89 -113 -183 -218 -183c-66 0 -108 36 -108 89c0 89 113 183 218 183z" fill="currentColor"/>
</g>
</g>
<g transform="translate(61.0180, 8.9212)">
<rect x="-0.0650" y="-1.3139" width="0.1300" height="4.1239" ry="0.0400" fill="currentColor"/>
</g>
<g transform="translate(63.3155, 5.8464)">
<text font-family="serif" font-size="1.7459" text-anchor="start" fill="currentColor">
<tspan>115</tspan>
</text>
</g>
<g class="ev" data-at="0.3333333333333333">
<g transform="translate(14.1623, 6.9212)">
<path transform="scale(0.0040, -0.0040)" d="M218 136c66 0 108 -36 108 -89c0 -89 -113 -183 -218 -183c-66 0 -108 36 -108 89c0 89 113 183 218 183z" fill="currentColor"/>
</g>
</g>
<g transform="translate(7.5520, 4.9212)">
<path transform="scale(0.0040, -0.0040)" d="M27 41l-1 -66v-11c0 -22 1 -44 4 -66c45 38 93 80 93 139c0 33 -14 67 -43 67c-31 0 -52 -30 -53 -63zM-15 -138l-12 595c8 5 18 8 27 8s19 -3 27 -8l-7 -345c25 21 58 34 91 34c52 0 89 -48 89 -102c0 -80 -86 -117 -147 -169c-15 -13 -24 -38 -45 -38
c-13 0 -23 11 -23 25z" fill="currentColor"/>
</g>
<g class="ev" data-at="0.25">
<g transform="translate(11.9081, 5.9212)">
<path transform="scale(0.0040, -0.0040)" d="M218 136c66 0 108 -36 108 -89c0 -89 -113 -183 -218 -183c-66 0 -108 36 -108 89c0 89 113 183 218 183z" fill="currentColor"/>
</g>
</g>
<g transform="translate(11.9731, 8.9212)">
<rect x="-0.0650" y="-2.8139" width="0.1300" height="3.6239" ry="0.0400" fill="currentColor"/>
</g>
<g transform="translate(8.8320, 8.8812)">
<path transform="scale(0.0040, -0.0040)" d="M0 0h-16v250h16v-250zM0 0v250c97 59 224 148 224 259c0 57 -15 112 -40 163c-3 16 10 27 23 27c7 0 15 -3 20 -11c25 -56 40 -117 40 -179c0 -203 -267 -306 -267 -509z" fill="currentColor"/>
</g>
<g transform="translate(14.2273, 8.9212)">
<rect x="-0.0650" y="-1.8139" width="0.1300" height="2.6239" ry="0.0400" fill="currentColor"/>
</g>
<g class="ev" data-at="0.4166666666666667">
<g transform="translate(17.3366, 6.4212)">
<path transform="scale(0.0040, -0.0040)" d="M218 136c66 0 108 -36 108 -89c0 -89 -113 -183 -218 -183c-66 0 -108 36 -108 89c0 89 113 183 218 183z" fill="currentColor"/>
</g>
</g>
<g transform="translate(33.2312, 5.3276)">
<text font-family="serif" font-size="1.7459" text-anchor="start" fill="currentColor">
<tspan>114</tspan>
</text>
</g>
<g transform="translate(-3.3802, 5.8464)">
<text font-family="serif" font-size="1.7459" text-anchor="start" fill="currentColor">
<tspan>113</tspan>
</text>
</g>
<g class="ev" data-at="0.0">
<g transform="translate(5.8000, 8.9212)">
<path transform="scale(0.0040, -0.0040)" d="M70 205c79 0 46 -98 91 -98c16 0 54 48 61 63c6 12 23 12 28 0l-123 -420c-8 -7 -17 -10 -27 -10s-20 3 -28 10l117 326c-34 -12 -69 -22 -105 -22c-47 0 -87 34 -87 79c0 40 33 72 73 72z" fill="currentColor"/>
</g>
</g>
<g transform="translate(0.8000, 7.9212)">
<path transform="scale(0.0040, -0.0040)" d="M557 -125c0 28 23 51 51 51s51 -23 51 -51s-23 -51 -51 -51s-51 23 -51 51zM557 125c0 28 23 51 51 51s51 -23 51 -51s-23 -51 -51 -51s-51 23 -51 51zM232 263c172 0 293 -88 293 -251c0 -263 -263 -414 -516 -521c-3 -3 -6 -4 -9 -4c-7 0 -13 6 -13 13c0 3 1 6 4 9
c202 118 412 265 412 493c0 120 -63 235 -171 235c-74 0 -129 -54 -154 -126c11 5 22 8 34 8c55 0 100 -45 100 -100c0 -58 -44 -106 -100 -106c-60 0 -112 47 -112 106c0 133 102 244 232 244z" fill="currentColor"/>
</g>
<g transform="translate(17.4016, 8.9212)">
<rect x="-0.0650" y="-2.3139" width="0.1300" height="3.1239" ry="0.0400" fill="currentColor"/>
</g>
<g class="ev" data-at="0.125">
<g transform="translate(8.7020, 4.9212)">
<path transform="scale(0.0040, -0.0040)" d="M218 136c66 0 108 -36 108 -89c0 -89 -113 -183 -218 -183c-66 0 -108 36 -108 89c0 89 113 183 218 183z" fill="currentColor"/>
</g>
</g>
<g transform="translate(8.7020, 16.2268)">
<text font-family="serif" font-style="italic" font-size="2.2000" text-anchor="start" fill="currentColor">
<tspan>rinf.</tspan>
</text>
</g>
<g transform="translate(8.7020, 2.4975)">
<text font-family="serif" font-style="italic" font-size="2.2000" text-anchor="start" fill="currentColor">
<tspan>sempre animando</tspan>
</text>
</g>
<g transform="translate(7.9030, 13.4672)">
<g>
<path transform="scale(0.0040, -0.0040)" d="M-43 140c0 14 58 159 151 159c22 0 36 -20 41 -45c22 26 51 45 81 45c23 0 38 -21 44 -46c22 27 51 46 80 46c33 0 59 -35 59 -69c0 -5 -1 -10 -2 -15l-35 -149c0 -2 -1 -4 -1 -5c0 -5 2 -8 7 -8c21 0 48 37 61 37c6 0 11 -4 11 -10c0 -11 -77 -87 -138 -87
c-20 0 -32 13 -32 32c0 4 0 7 1 11l39 165c1 5 2 9 2 14c0 10 -4 18 -14 18c-16 0 -33 -16 -39 -32l-53 -183c-3 -10 -12 -18 -22 -18h-41c-10 0 -16 8 -13 18l52 183c2 6 3 11 3 16c0 9 -4 16 -13 16c-15 0 -34 -14 -41 -33l-62 -182c-3 -10 -14 -18 -24 -18h-41
c-10 0 -15 8 -12 18l63 183c2 5 2 10 2 15c0 10 -3 17 -13 17c-29 0 -54 -53 -66 -87c-4 -11 -15 -17 -23 -17c-7 0 -12 4 -12 11z" fill="currentColor"/>

<path transform="translate(1.6389, 0.0000) scale(0.0040, -0.0040)" d="M253 245l-50 -163c-30 -99 -121 -255 -218 -255c-45 0 -87 27 -87 69c0 39 17 77 52 77c24 0 44 -20 44 -44c0 -30 -38 -24 -38 -54c0 -10 11 -11 23 -11h6c48 0 61 58 73 108l68 273h-49c-11 0 -19 8 -19 19s8 19 19 19h60c32 96 118 191 213 191c45 0 87 -27 87 -69
c0 -39 -17 -77 -52 -77c-24 0 -44 19 -44 43c0 30 38 25 38 55c0 10 -10 11 -22 11h-7c-62 0 -70 -88 -86 -154h55c11 0 19 -8 19 -19s-8 -19 -19 -19h-66z" fill="currentColor"/>
</g>
</g>
<g transform="translate(8.7670, 8.9212)">
<rect x="-0.0650" y="-3.8139" width="0.1300" height="3.8139" ry="0.0400" fill="currentColor"/>
</g>
<g class="ev" data-at="0.75">
<g transform="translate(26.0031, 8.4212)">
<path transform="scale(0.0040, -0.0040)" d="M218 136c66 0 108 -36 108 -89c0 -89 -113 -183 -218 -183c-66 0 -108 36 -108 89c0 89 113 183 218 183z" fill="currentColor"/>
</g>
</g>
<g transform="translate(26.0681, 8.9212)">
<rect x="-0.0650" y="-0.3139" width="0.1300" height="3.1239" ry="0.0400" fill="currentColor"/>
</g>
<g transform="translate(16.1866, 6.4212)">
<path transform="scale(0.0040, -0.0040)" d="M27 41l-1 -66v-11c0 -22 1 -44 4 -66c45 38 93 80 93 139c0 33 -14 67 -43 67c-31 0 -52 -30 -53 -63zM-15 -138l-12 595c8 5 18 8 27 8s19 -3 27 -8l-7 -345c25 21 58 34 91 34c52 0 89 -48 89 -102c0 -80 -86 -117 -147 -169c-15 -13 -24 -38 -45 -38
c-13 0 -23 11 -23 25z" fill="currentColor"/>
</g>
<g transform="translate(24.8531, 8.4212)">
<path transform="scale(0.0040, -0.0040)" d="M27 41l-1 -66v-11c0 -22 1 -44 4 -66c45 38 93 80 93 139c0 33 -14 67 -43 67c-31 0 -52 -30 -53 -63zM-15 -138l-12 595c8 5 18 8 27 8s19 -3 27 -8l-7 -345c25 21 58 34 91 34c52 0 89 -48 89 -102c0 -80 -86 -117 -147 -169c-15 -13 -24 -38 -45 -38
c-13 0 -23 11 -23 25z" fill="currentColor"/>
</g>
<g class="ev" data-at="0.8333333333333334">
<g transform="translate(28.2573, 9.4212)">
<path transform="scale(0.0040, -0.0040)" d="M218 136c66 0 108 -36 108 -89c0 -89 -113 -183 -218 -183c-66 0 -108 36 -108 89c0 89 113 183 218 183z" fill="currentColor"/>
</g>
</g>
<g transform="translate(28.3223, 8.9212)">
<rect x="-0.0650" y="0.6861" width="0.1300" height="2.1239" ry="0.0400" fill="currentColor"/>
</g>
<g class="ev" data-at="0.9166666666666666">
<g transform="translate(30.7615, 8.9212)">
<path transform="scale(0.0040, -0.0040)" d="M218 136c66 0 108 -36 108 -89c0 -89 -113 -183 -218 -183c-66 0 -108 36 -108 89c0 89 113 183 218 183z" fill="currentColor"/>
</g>
</g>
<g transform="translate(30.8265, 8.9212)">
<rect x="-0.0650" y="0.1861" width="0.1300" height="2.6239" ry="0.0400" fill="currentColor"/>
</g>
<g class="ev" data-at="1.0">
<g transform="translate(35.1962, 9.9212)">
<path transform="scale(0.0040, -0.0040)" d="M218 136c66 0 108 -36 108 -89c0 -89 -113 -183 -218 -183c-66 0 -108 36 -108 89c0 89 113 183 218 183z" fill="currentColor"/>
</g>
</g>
<g transform="translate(22.8619, 8.9212)">
<rect x="-0.0650" y="-1.3139" width="0.1300" height="3.1239" ry="0.0400" fill="currentColor"/>
</g>
<g class="ev" data-at="0.5">
<g transform="translate(19.5908, 7.4212)">
<path transform="scale(0.0040, -0.0040)" d="M218 136c66 0 108 -36 108 -89c0 -89 -113 -183 -218 -183c-66 0 -108 36 -108 89c0 89 113 183 218 183z" fill="currentColor"/>
</g>
</g>
<g class="ev" data-at="0.625">
<g transform="translate(22.7969, 7.4212)">
<path transform="scale(0.0040, -0.0040)" d="M218 136c66 0 108 -36 108 -89c0 -89 -113 -183 -218 -183c-66 0 -108 36 -108 89c0 89 113 183 218 183z" fill="currentColor"/>
</g>
</g>
<g transform="translate(19.6558, 8.9212)">
<rect x="-0.0650" y="-1.3139" width="0.1300" height="3.1239" ry="0.0400" fill="currentColor"/>
</g>
</svg>
