<svg xmlns="http://www.w3.org/2000/svg" xmlns:xlink="http://www.w3.org/1999/xlink" version="1.2" width="55.15mm" height="22.32mm" viewBox="-1.1267 0.4518 31.3841 12.7034">
<style type="text/css">
<![CDATA[
tspan { white-space: pre; }
]]>
</style>
<g transform="translate(0.0000, 8.6747)">
<line stroke-linejoin="round" stroke-linecap="round" stroke-width="0.1000" stroke="currentColor" x1="0.0500" y1="0" x2="29.1756" y2="0"/>
</g>
<g transform="translate(0.0000, 7.6747)">
<line stroke-linejoin="round" stroke-linecap="round" stroke-width="0.1000" stroke="currentColor" x1="0.0500" y1="0" x2="29.1756" y2="0"/>
</g>
<g transform="translate(0.0000, 6.6747)">
<line stroke-linejoin="round" stroke-linecap="round" stroke-width="0.1000" stroke="currentColor" x1="0.0500" y1="0" x2="29.1756" y2="0"/>
</g>
<g transform="translate(0.0000, 5.6747)">
<line stroke-linejoin="round" stroke-linecap="round" stroke-width="0.1000" stroke="currentColor" x1="0.0500" y1="0" x2="29.1756" y2="0"/>
</g>
<g transform="translate(0.0000, 4.6747)">
<line stroke-linejoin="round" stroke-linecap="round" stroke-width="0.1000" stroke="currentColor" x1="0.0500" y1="0" x2="29.1756" y2="0"/>
</g>
<g transform="translate(0.0000, 9.6747)">
<rect x="22.6015" y="-0.1000" width="1.9563" height="0.2000" ry="0.1000" fill="currentColor"/>
</g>
<g transform="translate(0.0000, 9.6747)">
<rect x="15.9821" y="-0.1000" width="1.9563" height="0.2000" ry="0.1000" fill="currentColor"/>
</g>
<g transform="translate(0.0000, 9.6747)">
<rect x="5.4739" y="-0.1000" width="1.9563" height="0.2000" ry="0.1000" fill="currentColor"/>
</g>
<g transform="translate(29.0356, 6.6747)">
<rect x="0.0000" y="-2.0000" width="0.1900" height="4.0000" ry="0.0000" fill="currentColor"/>
</g>
<g transform="translate(24.2317, 4.7147)">
<path transform="scale(0.0040, -0.0040)" d="M0 0v-250h-16v250h16zM0 0c0 -197 207 -336 207 -533c0 -71 -15 -141 -41 -207c-5 -8 -13 -12 -20 -12c-13 0 -26 11 -23 27c26 61 42 126 42 192c0 103 -94 208 -165 283v250z" fill="currentColor"/>
</g>
<g transform="translate(16.3081, 9.6747)">
<path transform="scale(0.0040, -0.0040)" d="M218 136c66 0 108 -36 108 -89c0 -89 -113 -183 -218 -183c-66 0 -108 36 -108 89c0 89 113 183 218 183z" fill="currentColor"/>
</g>
<g transform="translate(24.1667, 6.6747)">
<rect x="-0.0650" y="-2.0000" width="0.1300" height="4.8139" ry="0.0400" fill="currentColor"/>
</g>
<g transform="translate(23.5796, 10.6197)">
<path transform="scale(0.0040, -0.0040)" d="M-50 0c0 28 22 50 50 50s50 -22 50 -50s-22 -50 -50 -50s-50 22 -50 50z" fill="currentColor"/>
</g>
<g transform="translate(22.9275, 8.1747)">
<path transform="scale(0.0040, -0.0040)" d="M218 136c66 0 108 -36 108 -89c0 -89 -113 -183 -218 -183c-66 0 -108 36 -108 89c0 89 113 183 218 183z" fill="currentColor"/>
</g>
<g transform="translate(22.9275, 9.6747)">
<path transform="scale(0.0040, -0.0040)" d="M218 136c66 0 108 -36 108 -89c0 -89 -113 -183 -218 -183c-66 0 -108 36 -108 89c0 89 113 183 218 183z" fill="currentColor"/>
</g>
<g transform="translate(18.8756, 6.6747)">
<path transform="scale(0.0040, -0.0040)" d="M-6 78c0 59 124 83 124 182c0 24 -8 49 -25 69l-35 42c-3 3 -4 7 -4 10c0 9 9 15 17 15c4 0 8 -1 11 -5l151 -180c7 -9 10 -17 10 -25c0 -59 -124 -83 -124 -182c0 -24 7 -49 24 -69l84 -99c3 -3 4 -7 4 -10c0 -9 -8 -16 -16 -16s-45 44 -109 44c-16 0 -53 0 -53 -67
c0 -35 11 -74 28 -94c7 -8 -5 -19 -12 -11c-45 54 -92 148 -92 202c0 41 27 42 40 42c33 0 78 -13 119 -31l-132 158c-7 9 -10 17 -10 25z" fill="currentColor"/>
</g>
<g transform="translate(17.6123, 4.7147)">
<path transform="scale(0.0040, -0.0040)" d="M0 0v-250h-16v250h16zM0 0c0 -197 207 -336 207 -533c0 -71 -15 -141 -41 -207c-5 -8 -13 -12 -20 -12c-13 0 -26 11 -23 27c26 61 42 126 42 192c0 103 -94 208 -165 283v250z" fill="currentColor"/>
</g>
<g transform="translate(17.5473, 6.6747)">
<rect x="-0.0650" y="-2.0000" width="0.1300" height="4.8139" ry="0.0400" fill="currentColor"/>
</g>
<g transform="translate(16.9602, 10.6197)">
<path transform="scale(0.0040, -0.0040)" d="M-50 0c0 28 22 50 50 50s50 -22 50 -50s-22 -50 -50 -50s-50 22 -50 50z" fill="currentColor"/>
</g>
<g transform="translate(15.4921, 12.3556)">
<g>
<path transform="scale(0.0040, -0.0040)" d="M161 32c78 0 97 176 97 178c0 18 -7 33 -25 33c-61 0 -102 -124 -102 -173c0 -22 8 -38 30 -38zM-53 141c0 2 51 151 134 151c35 0 59 -21 66 -52c29 31 67 52 103 52c69 0 107 -49 107 -114c0 -118 -105 -186 -159 -186c-53 0 -70 20 -84 20c-7 0 -14 -3 -16 -9l-29 -86
c-1 -2 -1 -5 -1 -7c0 -37 57 -18 57 -42c0 -7 -4 -14 -13 -14c-3 0 -50 5 -116 5s-112 -5 -115 -5c-9 0 -14 7 -14 14c0 31 87 -1 102 41l102 300c2 7 4 14 4 20c0 8 -2 14 -11 14c-33 0 -63 -60 -79 -97c-5 -12 -15 -17 -24 -17c-8 0 -14 4 -14 12z" fill="currentColor"/>

<path transform="translate(1.4682, 0.0000) scale(0.0040, -0.0040)" d="M161 32c78 0 97 176 97 178c0 18 -7 33 -25 33c-61 0 -102 -124 -102 -173c0 -22 8 -38 30 -38zM-53 141c0 2 51 151 134 151c35 0 59 -21 66 -52c29 31 67 52 103 52c69 0 107 -49 107 -114c0 -118 -105 -186 -159 -186c-53 0 -70 20 -84 20c-7 0 -14 -3 -16 -9l-29 -86
c-1 -2 -1 -5 -1 -7c0 -37 57 -18 57 -42c0 -7 -4 -14 -13 -14c-3 0 -50 5 -116 5s-112 -5 -115 -5c-9 0 -14 7 -14 14c0 31 87 -1 102 41l102 300c2 7 4 14 4 20c0 8 -2 14 -11 14c-33 0 -63 -60 -79 -97c-5 -12 -15 -17 -24 -17c-8 0 -14 4 -14 12z" fill="currentColor"/>
</g>
</g>
<g transform="translate(16.3081, 8.1747)">
<path transform="scale(0.0040, -0.0040)" d="M218 136c66 0 108 -36 108 -89c0 -89 -113 -183 -218 -183c-66 0 -108 36 -108 89c0 89 113 183 218 183z" fill="currentColor"/>
</g>
<g transform="translate(14.1969, 3.9103)">
<text font-family="serif" font-style="italic" font-size="1.7459" text-anchor="start" fill="currentColor">
<tspan>3</tspan>
</text>
</g>
<g transform="translate(11.9081, 3.2747)">
<line stroke-linejoin="round" stroke-linecap="round" stroke-width="0.1600" stroke="currentColor" x1="5.9042" y1="-0.0000" x2="5.9042" y2="0.7000"/>
</g>
<g transform="translate(11.9081, 3.2747)">
<line stroke-linejoin="round" stroke-linecap="round" stroke-width="0.1600" stroke="currentColor" x1="-0.2000" y1="-0.0000" x2="-0.2000" y2="0.7000"/>
</g>
<g transform="translate(11.9081, 3.2747)">
<line stroke-linejoin="round" stroke-linecap="round" stroke-width="0.1600" stroke="currentColor" x1="5.9042" y1="-0.0000" x2="4.0155" y2="-0.0000"/>
</g>
<g transform="translate(11.9081, 3.2747)">
<line stroke-linejoin="round" stroke-linecap="round" stroke-width="0.1600" stroke="currentColor" x1="-0.2000" y1="-0.0000" x2="1.8887" y2="-0.0000"/>
</g>
<g transform="translate(29.1306, 3.6247)">
<text font-family="serif" font-size="1.7459" text-anchor="start" fill="currentColor">
<tspan>4</tspan>
</text>
</g>
<g transform="translate(26.1337, 6.6747)">
<path transform="scale(0.0040, -0.0040)" d="M70 205c79 0 46 -98 91 -98c16 0 54 48 61 63c6 12 23 12 28 0l-123 -420c-8 -7 -17 -10 -27 -10s-20 3 -28 10l117 326c-34 -12 -69 -22 -105 -22c-47 0 -87 34 -87 79c0 40 33 72 73 72z" fill="currentColor"/>
</g>
<g transform="translate(7.0392, 6.6747)">
<rect x="-0.0650" y="-2.0000" width="0.1300" height="4.8139" ry="0.0400" fill="currentColor"/>
</g>
<g transform="translate(-1.1267, 3.6000)">
<text font-family="serif" font-size="1.7459" text-anchor="start" fill="currentColor">
<tspan>3</tspan>
</text>
</g>
<g transform="translate(7.1042, 4.7147)">
<path transform="scale(0.0040, -0.0040)" d="M0 0v-250h-16v250h16zM0 0c0 -197 207 -336 207 -533c0 -71 -15 -141 -41 -207c-5 -8 -13 -12 -20 -12c-13 0 -26 11 -23 27c26 61 42 126 42 192c0 103 -94 208 -165 283v250z" fill="currentColor"/>
</g>
<g transform="translate(0.8000, 5.6747)">
<path transform="scale(0.0040, -0.0040)" d="M557 -125c0 28 23 51 51 51s51 -23 51 -51s-23 -51 -51 -51s-51 23 -51 51zM557 125c0 28 23 51 51 51s51 -23 51 -51s-23 -51 -51 -51s-51 23 -51 51zM232 263c172 0 293 -88 293 -251c0 -263 -263 -414 -516 -521c-3 -3 -6 -4 -9 -4c-7 0 -13 6 -13 13c0 3 1 6 4 9
c202 118 412 265 412 493c0 120 -63 235 -171 235c-74 0 -129 -54 -154 -126c11 5 22 8 34 8c55 0 100 -45 100 -100c0 -58 -44 -106 -100 -106c-60 0 -112 47 -112 106c0 133 102 244 232 244z" fill="currentColor"/>
</g>
<g transform="translate(6.4521, 10.6197)">
<path transform="scale(0.0040, -0.0040)" d="M-50 0c0 28 22 50 50 50s50 -22 50 -50s-22 -50 -50 -50s-50 22 -50 50z" fill="currentColor"/>
</g>
<g transform="translate(5.4107, 12.4632)">
<g>
<path transform="scale(0.0040, -0.0040)" d="M124 223c0 -41 99 -50 99 -117c0 -61 -56 -106 -120 -106c-43 0 -81 28 -81 68c0 21 12 42 31 42c18 0 32 -14 32 -32c0 -13 -21 -16 -21 -29c0 -15 18 -22 35 -22c33 0 64 20 64 51c0 58 -100 63 -100 117s45 97 99 97c56 0 79 -34 79 -62c0 -19 -11 -36 -30 -36
c-18 0 -31 11 -31 22c0 8 9 13 9 29c0 13 -6 23 -18 23c-26 0 -47 -20 -47 -45z" fill="currentColor"/>

<path transform="translate(0.8194, 0.0000) scale(0.0040, -0.0040)" d="M253 245l-50 -163c-30 -99 -121 -255 -218 -255c-45 0 -87 27 -87 69c0 39 17 77 52 77c24 0 44 -20 44 -44c0 -30 -38 -24 -38 -54c0 -10 11 -11 23 -11h6c48 0 61 58 73 108l68 273h-49c-11 0 -19 8 -19 19s8 19 19 19h60c32 96 118 191 213 191c45 0 87 -27 87 -69
c0 -39 -17 -77 -52 -77c-24 0 -44 19 -44 43c0 30 38 25 38 55c0 10 -10 11 -22 11h-7c-62 0 -70 -88 -86 -154h55c11 0 19 -8 19 -19s-8 -19 -19 -19h-66z" fill="currentColor"/>
</g>
</g>
<g transform="translate(5.8000, 2.1233)">
<text font-family="serif" font-style="italic" font-size="2.2000" text-anchor="start" fill="currentColor">
<tspan>senza sord.</tspan>
</text>
</g>
<g transform="translate(5.8000, 8.1747)">
<path transform="scale(0.0040, -0.0040)" d="M218 136c66 0 108 -36 108 -89c0 -89 -113 -183 -218 -183c-66 0 -108 36 -108 89c0 89 113 183 218 183z" fill="currentColor"/>
</g>
<g transform="translate(5.8000, 9.6747)">
<path transform="scale(0.0040, -0.0040)" d="M218 136c66 0 108 -36 108 -89c0 -89 -113 -183 -218 -183c-66 0 -108 36 -108 89c0 89 113 183 218 183z" fill="currentColor"/>
</g>
<g transform="translate(14.1081, 6.6747)">
<path transform="scale(0.0040, -0.0040)" d="M70 205c79 0 46 -98 91 -98c16 0 54 48 61 63c6 12 23 12 28 0l-123 -420c-8 -7 -17 -10 -27 -10s-20 3 -28 10l117 326c-34 -12 -69 -22 -105 -22c-47 0 -87 34 -87 79c0 40 33 72 73 72z" fill="currentColor"/>
</g>
<g transform="translate(11.9081, 6.6747)">
<path transform="scale(0.0040, -0.0040)" d="M70 205c79 0 46 -98 91 -98c16 0 54 48 61 63c6 12 23 12 28 0l-123 -420c-8 -7 -17 -10 -27 -10s-20 3 -28 10l117 326c-34 -12 -69 -22 -105 -22c-47 0 -87 34 -87 79c0 40 33 72 73 72z" fill="currentColor"/>
</g>
<g transform="translate(9.0062, 6.6747)">
<path transform="scale(0.0040, -0.0040)" d="M70 205c79 0 46 -98 91 -98c16 0 54 48 61 63c6 12 23 12 28 0l-123 -420c-8 -7 -17 -10 -27 -10s-20 3 -28 10l117 326c-34 -12 -69 -22 -105 -22c-47 0 -87 34 -87 79c0 40 33 72 73 72z" fill="currentColor"/>
</g>
</svg>
